{"title":"Dorrough - Get Big [KingPinVideos]","uid":5716344,"size":85982448,"categoryP":"other","categoryS":"other","magnet":"?xt=urn:btih:148ffaaaa2869202f4164158aa375e4530b0fc0a&amp;dn=Dorrough+-+Get+Big+%5BKingPinVideos%5D&amp;tr=udp%3A%2F%2Ftracker.openbittorrent.com%3A80&amp;tr=udp%3A%2F%2Fopen.demonii.com%3A1337&amp;tr=udp%3A%2F%2Ftracker.coppersurfer.tk%3A6969&amp;tr=udp%3A%2F%2Fexodus.desync.com%3A6969","seeders":0,"leechers":1,"uploader":null,"files":4,"time":1280111703,"description":"[IMG]http://img814.imageshack.us/img814/6439/dorrough.png[/IMG]\n\n[IMG]http://img62.imageshack.us/img62/7739/dorrough2.png[/IMG]\n\nBrand new video from Dallas Texas, Get Big by the Dorrough. Check out this hot video directed by very talented music video director Dr Teeth. Dr Teeth has directed most of Dorrough's video which include videos like, Ice Cream Paint Job, Wired To The T and Walk That Walk. Check out the latest video Get Big by Dorrough!\n\n[CODE]General\nComplete name                    : Dorrough - Get Big [KingPinVideos].mpg\nFormat                           : MPEG-PS\nFile size                        : 81.8 MiB\nDuration                         : 3mn 59s\nOverall bit rate                 : 2 866 Kbps\nWriting library                  : encoded by TMPGEnc 4.0 XPress Version. 4.7.4.299\n\nVideo\nID                               : 224 (0xE0)\nFormat                           : MPEG Video\nFormat version                   : Version 1\nFormat settings, BVOP            : Yes\nFormat settings, Matrix          : Default\nDuration                         : 3mn 54s\nBit rate mode                    : Constant\nBit rate                         : 2 560 Kbps\nNominal bit rate                 : 2 700 Kbps\nWidth                            : 384 pixels\nHeight                           : 208 pixels\nDisplay aspect ratio             : 16:9\nFrame rate                       : 29.970 fps\nResolution                       : 8 bits\nScan type                        : Progressive\nBits/(Pixel*Frame)               : 1.069\nStream size                      : 71.6 MiB (87%)\nWriting library                  : TMPGEnc XPress 4.7.4.299\n\nAudio\nID                               : 192 (0xC0)\nFormat                           : MPEG Audio\nFormat version                   : Version 1\nFormat profile                   : Layer 3\nDuration                         : 3mn 59s\nBit rate mode                    : Constant\nBit rate                         : 192 Kbps\nChannel(s)                       : 2 channels\nSampling rate                    : 48.0 KHz\nStream size                      : 5.48 MiB (7%)[/CODE]","torrent":{"xt":"urn:btih:148ffaaaa2869202f4164158aa375e4530b0fc0a","amp;dn":"Dorrough+-+Get+Big+%5BKingPinVideos%5D","amp;tr":["udp%3A%2F%2Ftracker.openbittorrent.com%3A80","udp%3A%2F%2Fopen.demonii.com%3A1337","udp%3A%2F%2Ftracker.coppersurfer.tk%3A6969","udp%3A%2F%2Fexodus.desync.com%3A6969"],"infoHash":"148ffaaaa2869202f4164158aa375e4530b0fc0a","infoHashBuffer":{"type":"Buffer","data":[20,143,250,170,162,134,146,2,244,22,65,88,170,55,94,69,48,176,252,10]},"announce":[],"urlList":[]}}